<svg width="62" height="62" viewBox="0 0 62 62" fill="none" xmlns="http://www.w3.org/2000/svg">
<g opacity="0.4">
<path d="M31.4572 0.46794C31.4572 0.445437 31.4572 0.422934 31.4361 0.397217L31.4028 0.426149L31.3695 0.397217C31.3695 0.422934 31.3695 0.445437 31.3483 0.46794L0.790039 25.0861L1.5918 26.089L31.4028 2.07529L61.1986 26.089L62.0004 25.0861L31.4572 0.46794Z" fill="black" fill-opacity="0.87"/>
<path d="M53.3841 40.4684V27.6096L31.2974 9.28589L31.2702 9.30839L31.2429 9.28589L9.15625 27.6096V54.2498H39.7962C40.4923 56.4192 41.8167 58.2989 43.5798 59.6196C45.3429 60.9403 47.4542 61.6341 49.6112 61.6018C55.3295 61.515 59.9314 56.5805 59.8558 50.6172C59.8342 48.4372 59.209 46.3123 58.0581 44.5075C56.9072 42.7027 55.2816 41.2979 53.3841 40.4684ZM39.4241 52.9639H10.3362V28.2461L31.0614 11.0508V11.0958L31.255 10.9382L31.4487 11.0958V11.0508L52.1739 28.2461V40.0376C51.2503 39.7698 50.2962 39.6399 49.3389 39.6519C43.6932 39.7226 39.1064 44.6572 39.1699 50.5979C39.1768 51.3938 39.262 52.1868 39.4241 52.9639ZM49.4266 60.2773C47.6367 60.2551 45.893 59.6709 44.4147 58.5984C42.9364 57.526 41.7895 56.013 41.1184 54.2498C40.9568 53.8317 40.8234 53.402 40.719 52.9639C40.518 52.1529 40.4163 51.3177 40.4165 50.479C40.4407 45.3033 44.5766 41.0213 49.5295 41.0471C50.4218 41.0503 51.3087 41.1932 52.1617 41.4714C52.5759 41.6078 52.9803 41.7754 53.372 41.9729C54.9206 42.7589 56.2267 43.9971 57.1375 45.5426C58.0483 47.0882 58.5263 48.8773 58.5154 50.7008C58.4845 53.2443 57.5147 55.6732 55.8147 57.4644C54.1148 59.2556 51.8207 60.2658 49.4266 60.2773Z" fill="black" fill-opacity="0.87"/>
<path d="M50.5966 50.3696C50.4272 50.2892 50.2487 50.2185 50.0732 50.151V46.0651C50.3624 46.1631 50.6242 46.3357 50.8353 46.5673C51.0465 46.799 51.2005 47.0826 51.2834 47.3928H52.5239C52.4926 46.9407 52.3439 46.5067 52.0943 46.139C51.6176 45.4426 50.9329 44.9384 50.1519 44.7085L50.0581 44.6924V43.8341H48.9507V44.7053C48.7822 44.739 48.6163 44.7863 48.4545 44.8467C47.7289 45.1369 47.1277 45.6981 46.7632 46.4252C46.5243 46.9449 46.408 47.5186 46.4244 48.0968C46.4697 49.672 47.4591 50.4885 48.7117 51.0382L48.9507 51.1379V55.198C48.6539 55.079 48.3887 54.8851 48.1779 54.6332C47.9671 54.3812 47.817 54.0786 47.7405 53.7514H46.4939C46.4924 53.7739 46.4924 53.7965 46.4939 53.8189C46.5518 54.3456 46.735 54.8479 47.0265 55.2784C47.35 55.7358 47.7765 56.0995 48.2669 56.336C48.4944 56.4096 48.7271 56.4634 48.9628 56.4968V57.3487H50.0853V56.5032C50.2415 56.482 50.3954 56.4454 50.5452 56.3939C51.1782 56.1703 51.7238 55.7306 52.0973 55.1434C52.4324 54.5916 52.61 53.9485 52.6086 53.2917C52.6328 51.7776 51.7766 50.9386 50.5966 50.3696ZM48.8055 49.553C48.3051 49.2103 47.9221 48.7052 47.7132 48.1129C47.4954 47.2095 48.1338 46.3191 48.9507 46.0683V49.6527C48.9023 49.6173 48.8539 49.5884 48.8055 49.553ZM50.7267 54.8123C50.5349 54.9869 50.3129 55.1201 50.0732 55.2045V51.5976C50.2245 51.6683 50.3757 51.7455 50.5149 51.8291C51.6193 52.4913 51.701 53.9411 50.7267 54.8123Z" fill="black" fill-opacity="0.87"/>
</g>
</svg>
