<svg width="246" height="40" viewBox="0 0 246 40" fill="none" xmlns="http://www.w3.org/2000/svg">
<path fill-rule="evenodd" clip-rule="evenodd" d="M186.13 0.615723C175.189 0.615723 166.389 8.58384 166.389 20.0008C166.389 31.4575 175.189 39.386 186.13 39.386C196.992 39.386 205.833 31.4575 205.833 20.0008C205.833 8.58384 196.992 0.615723 186.13 0.615723ZM188.588 22.1415L190.333 28.2465C190.451 28.6032 190.174 28.96 189.778 28.96H182.364C182.008 28.96 181.73 28.6032 181.849 28.2465L183.593 22.1415C183.673 21.9433 183.554 21.7055 183.355 21.6262C181.572 20.6351 180.382 18.653 180.541 16.433C180.739 13.6977 182.88 11.557 185.615 11.3192C188.905 11.0416 191.641 13.6184 191.641 16.8295C191.641 18.8909 190.491 20.7144 188.786 21.6262C188.628 21.7055 188.509 21.9037 188.588 22.1415ZM141.731 9.41632C144.783 9.41632 147.558 10.447 149.541 12.3895C151.562 14.332 152.633 16.988 152.633 20.0801C152.633 26.3436 148.153 30.7043 141.731 30.7043C135.269 30.7043 130.79 26.3436 130.79 20.0801C130.79 13.8166 135.269 9.41632 141.731 9.41632ZM141.731 0.695C130.79 0.695 121.989 8.66313 121.989 20.0801C121.989 31.5368 130.79 39.4652 141.731 39.4652C152.593 39.4652 161.433 31.5368 161.433 20.0801C161.433 8.66313 152.593 0.695 141.731 0.695ZM117.47 20.0801C117.47 30.0304 110.532 38.9103 96.9748 38.9103H84.2495V1.28964H96.9748C110.572 1.24999 117.47 10.1695 117.47 20.0801ZM108.55 20.0801C108.55 13.5391 104.467 8.78205 96.8162 8.78205H92.8519V31.3782H96.8162C104.467 31.3386 108.55 26.5815 108.55 20.0801ZM219.47 25.5508H225.535L234.772 38.8706H245.039L233.899 23.7272C237.665 21.7451 240.361 18.098 240.361 13.222C240.361 6.87923 235.802 1.25 226.526 1.25H210.867V38.8706H219.47V25.5508ZM225.812 18.4548H219.47V8.78205H225.812C229.301 8.78205 231.521 10.447 231.521 13.6977C231.521 16.8691 229.261 18.4548 225.812 18.4548ZM39.2158 0.932857V38.8706H30.6927V17.9791L20.7425 28.9204H19.5928L9.36512 18.0187V38.8706H0.960938V0.932857H4.52875L20.3857 18.0584H20.4253L35.648 0.932857H39.2158ZM65.2212 25.1147V38.8706H56.6188V24.9958L43.1801 1.25H52.8528L61.0984 16.7898L69.4629 1.25H78.6203L65.2212 25.1147Z" fill="white"/>
</svg>
