<svg width="62" height="62" viewBox="0 0 62 62" fill="none" xmlns="http://www.w3.org/2000/svg">
<g opacity="0.4">
<path d="M61.7808 27.2057L62 25.8091L53.1561 24.5893L52.9369 25.9859L61.7808 27.2057Z" fill="black" fill-opacity="0.87"/>
<path d="M55.7894 9.90588L54.7246 8.90771L48.4966 14.746L49.5614 15.7442L55.7894 9.90588Z" fill="black" fill-opacity="0.87"/>
<path d="M61.0196 17.7157L60.5283 16.3813L52.095 19.1096L52.5863 20.444L61.0196 17.7157Z" fill="black" fill-opacity="0.87"/>
<path d="M56.2292 61.6027H5.36816L5.77304 32.4915H56.2292V61.6027ZM6.53661 60.5107H55.0501V33.5835H6.92372L6.53661 60.5107Z" fill="black" fill-opacity="0.87"/>
<path d="M5.40699 32.1719L0.790039 24.8275L41.8774 0.397217L46.4943 7.74162L5.40699 32.1719ZM2.37756 25.1804L5.8012 30.6438L44.921 7.38206L41.4974 1.92203L2.37756 25.1804Z" fill="black" fill-opacity="0.87"/>
</g>
</svg>
