<svg width="62" height="62" viewBox="0 0 62 62" fill="none" xmlns="http://www.w3.org/2000/svg">
<g opacity="0.4">
<path d="M41.8879 2.09029L40.6349 1.62769L36.876 7.04993L38.129 7.51254L41.8879 2.09029Z" fill="black" fill-opacity="0.87"/>
<path d="M27.4784 7.33006L23.8144 1.97705L22.5576 2.43651L26.2255 7.78952L27.4784 7.33006Z" fill="black" fill-opacity="0.87"/>
<path d="M32.7183 0.397217L31.3135 0.406658L31.4008 6.47089L32.8057 6.4583L32.7183 0.397217Z" fill="black" fill-opacity="0.87"/>
<path d="M29.2101 14.8703L27.4749 14.4926C24.2323 13.7877 20.8796 13.0576 17.5725 12.2897C16.6194 12.0663 16.1031 12.2551 15.6019 13.0041C13.0933 16.786 11.4968 20.9364 10.9013 25.2238C10.0849 30.8632 10.981 35.3508 13.7186 39.3538C13.9148 39.633 13.9873 39.9602 13.9236 40.279C12.2682 45.4683 10.5064 50.9095 8.94205 55.6992L7.98902 58.6448L7.75741 58.5976C7.48023 58.5441 7.21825 58.4937 6.95626 58.4339L5.46027 58.1003L5.36155 58.0783C4.02503 57.7636 2.63914 57.4646 1.25327 57.1877H1.16973L0.790039 58.3143H0.820415C5.54 59.3874 10.514 60.492 15.6095 61.6029L15.9892 60.4354C15.7653 60.3735 15.537 60.3231 15.3057 60.2843C15.15 60.256 15.0058 60.2308 14.8653 60.1994L9.40528 58.9595L10.457 55.7118C12.1315 50.5381 13.7072 45.6603 15.3513 40.6881C15.5505 40.3342 15.8664 40.0341 16.2625 39.8227C16.7485 39.508 17.2725 39.1933 17.7813 38.8786C18.7278 38.3509 19.6171 37.756 20.4392 37.1005C26.7762 31.7223 30.0264 24.8053 30.3795 15.9528C30.3909 15.1283 29.7075 14.9804 29.2101 14.8703ZM26.6699 26.3284C24.0121 32.3454 20.5113 36.2194 15.3057 38.8912L15.1424 38.9761L15.0437 38.8408C13.206 36.3232 12.2985 33.4909 12.0973 29.6076V29.4817L26.799 26.0389L26.6699 26.3284ZM27.4787 24.1853C27.4296 24.3055 27.3495 24.4154 27.2439 24.5072C27.1383 24.5991 27.0098 24.6707 26.8674 24.7172C22.5389 25.7588 18.1344 26.7847 13.8743 27.776L12.1087 28.1883V27.9743C12.271 22.8915 13.9401 17.9199 16.9688 13.4982L17.0409 13.388L19.2052 13.8727C22.2123 14.5461 25.2802 15.2322 28.2912 15.9402C28.4198 16.003 28.5309 16.0876 28.6173 16.1885C28.7036 16.2894 28.7633 16.4042 28.7924 16.5256C28.4203 19.0054 27.9875 21.5041 27.4787 24.1853Z" fill="black" fill-opacity="0.87"/>
<path d="M61.5604 57.2413L61.401 57.279L56.5219 58.349L55.0639 58.6637L53.9248 55.0887C52.3491 50.2455 50.7202 45.2387 49.1673 40.3325C49.1335 39.982 49.2163 39.6304 49.4065 39.3161C49.4368 39.2437 49.471 39.1745 49.4976 39.1052C49.7672 38.4758 50.0861 37.8213 50.3975 37.2013C51.0946 35.9334 51.6168 34.6043 51.9542 33.2392C53.2983 26.5047 51.7909 19.7072 47.4814 13.0514C47.0486 12.3874 46.555 12.0317 45.4235 12.2992C41.6265 13.1867 37.7954 14.0332 34.0327 14.8168C32.8936 15.0497 32.6848 15.5406 32.7 16.3085C32.7963 20.903 34.0359 25.4316 36.3412 29.6108C38.9269 34.3313 42.3935 37.6891 46.9461 39.9234C47.3183 40.1503 47.5862 40.4755 47.7054 40.8455C48.6812 43.7942 49.6495 46.8027 50.5873 49.7105L50.6405 49.8742C50.9797 50.9358 51.3214 51.9953 51.6656 53.0526C52.0871 54.3618 52.5124 55.6678 52.9452 56.9958L53.6097 59.0288L52.0263 59.3655C50.3519 59.7211 48.7686 60.0578 47.1815 60.4323L47.527 61.5589C51.5631 60.6967 55.6562 59.7903 59.6164 58.9155L61.7731 58.4371L62.0009 58.3868L61.644 57.2161L61.5604 57.2413ZM36.5235 26.7502C35.0727 23.5124 34.3021 20.0925 34.2453 16.6389C34.2778 16.3984 34.4123 16.1753 34.625 16.0095H34.6706C37.7499 15.2826 40.8824 14.5808 43.9123 13.9042L45.9854 13.4416L46.0576 13.5454C48.7572 17.4477 50.3291 21.7654 50.8683 26.7439V26.9075L50.1089 26.9421C49.3913 26.9705 48.7116 27.0019 48.032 27.024L44.9944 27.1184H44.778C42.4163 27.1908 39.9749 27.2631 37.5638 27.3607H37.4347C36.9411 27.3387 36.7209 27.1876 36.5235 26.7502ZM47.8915 38.973L47.7282 38.8912C43.3466 36.7072 40.2103 33.5791 37.5486 28.7548L37.4309 28.5408L50.9328 28.0971V28.2576C51.0429 32.506 50.1051 35.867 47.9864 38.8377L47.8915 38.973Z" fill="black" fill-opacity="0.87"/>
</g>
</svg>
