<svg width="62" height="62" viewBox="0 0 62 62" fill="none" xmlns="http://www.w3.org/2000/svg">
<g opacity="0.4">
<path d="M31.5076 43.7979C31.2917 43.7957 31.0777 43.7566 30.875 43.6822C24.036 40.9784 19.7055 36.4202 17.9994 30.1342C17.6746 28.9299 17.6134 27.6697 17.8199 26.4395C18.0264 25.2094 18.4957 24.0383 19.1958 23.006C19.8979 21.9656 20.8161 21.089 21.8878 20.4359C22.9595 19.7827 24.1595 19.3685 25.4059 19.2213C27.7085 18.9539 29.8701 19.731 31.8329 21.5275C33.21 20.3352 34.922 19.5978 36.7345 19.4165C39.76 19.0551 42.9012 20.7648 44.5387 23.6747C45.2462 24.8521 45.6706 26.1776 45.7785 27.547C45.8864 28.9163 45.6748 30.292 45.1604 31.5656C42.9121 37.3492 38.5455 41.4266 32.1872 43.6931C31.9687 43.768 31.7385 43.8035 31.5076 43.7979ZM26.3855 20.5479C26.1114 20.5445 25.8373 20.559 25.565 20.5913C24.5153 20.7177 23.5054 21.0701 22.6049 21.6242C21.7045 22.1783 20.9348 22.921 20.3489 23.8012C19.7598 24.6675 19.3649 25.651 19.1915 26.6842C19.018 27.7175 19.0701 28.776 19.3441 29.7872C20.949 35.7117 24.889 39.8361 31.3883 42.4062C31.4936 42.4351 31.6047 42.4351 31.71 42.4062C37.7575 40.2374 41.7301 36.5431 43.8519 31.0813C44.2897 30 44.4702 28.8317 44.3793 27.6687C44.2883 26.5057 43.9283 25.3797 43.3278 24.3796C41.9614 21.9541 39.3769 20.5226 36.8972 20.8191C35.1782 20.9894 33.5707 21.7478 32.3462 22.9662L31.9052 23.4036L31.4209 23.0132L31.2546 22.8831C31.1353 22.7891 31.0413 22.7168 30.9546 22.6336C29.5051 21.2709 28.0049 20.5841 26.3855 20.5479Z" fill="black" fill-opacity="0.87"/>
<path d="M57.9309 25.0989L56.5428 25.0808L56.8103 6.72525L38.874 6.45776L38.8957 5.0697L58.2237 5.35527L57.9309 25.0989Z" fill="black" fill-opacity="0.87"/>
<path d="M25.7311 5.08417L25.7094 6.47585L7.35379 6.20474L7.08991 24.141L5.69824 24.123L5.98381 4.79138L25.7311 5.08417Z" fill="black" fill-opacity="0.87"/>
<path d="M5.51074 36.9335L6.90241 36.9299L6.93133 55.2891L24.8712 55.2602L24.8748 56.6519L5.54327 56.6808L5.51074 36.9335Z" fill="black" fill-opacity="0.87"/>
<path d="M37.7178 56.6808V55.2891L56.0734 55.2602L56.0445 37.3203L57.4361 37.3167L57.4687 56.6482L37.7178 56.6808Z" fill="black" fill-opacity="0.87"/>
<path d="M0.812454 29.2655L0.790039 30.7762L11.3583 30.933L11.3808 29.4223L0.812454 29.2655Z" fill="black" fill-opacity="0.87"/>
<path d="M51.4316 30.0123L51.4092 31.5231L61.9775 31.6799L61.9999 30.1691L51.4316 30.0123Z" fill="black" fill-opacity="0.87"/>
<path d="M32.9014 0.419631L31.3906 0.397217L31.2338 10.9655L32.7446 10.9879L32.9014 0.419631Z" fill="black" fill-opacity="0.87"/>
<path d="M32.1543 51.0346L30.6436 51.0122L30.4868 61.5805L31.9975 61.6029L32.1543 51.0346Z" fill="black" fill-opacity="0.87"/>
</g>
</svg>
