<svg width="17" height="17" viewBox="0 0 17 17" fill="none" xmlns="http://www.w3.org/2000/svg">
<path d="M8.54492 4.55225C6.29492 4.55225 4.50195 6.38037 4.50195 8.59521C4.50195 10.8452 6.29492 12.6382 8.54492 12.6382C10.7598 12.6382 12.5879 10.8452 12.5879 8.59521C12.5879 6.38037 10.7598 4.55225 8.54492 4.55225ZM8.54492 11.2319C7.10352 11.2319 5.9082 10.0718 5.9082 8.59521C5.9082 7.15381 7.06836 5.99365 8.54492 5.99365C9.98633 5.99365 11.1465 7.15381 11.1465 8.59521C11.1465 10.0718 9.98633 11.2319 8.54492 11.2319ZM13.6777 4.41162C13.6777 4.93896 13.2559 5.36084 12.7285 5.36084C12.2012 5.36084 11.7793 4.93896 11.7793 4.41162C11.7793 3.88428 12.2012 3.4624 12.7285 3.4624C13.2559 3.4624 13.6777 3.88428 13.6777 4.41162ZM16.3496 5.36084C16.2793 4.09521 15.998 2.97021 15.084 2.05615C14.1699 1.14209 13.0449 0.86084 11.7793 0.790527C10.4785 0.720215 6.57617 0.720215 5.27539 0.790527C4.00977 0.86084 2.91992 1.14209 1.9707 2.05615C1.05664 2.97021 0.775391 4.09521 0.705078 5.36084C0.634766 6.66162 0.634766 10.564 0.705078 11.8647C0.775391 13.1304 1.05664 14.2202 1.9707 15.1694C2.91992 16.0835 4.00977 16.3647 5.27539 16.4351C6.57617 16.5054 10.4785 16.5054 11.7793 16.4351C13.0449 16.3647 14.1699 16.0835 15.084 15.1694C15.998 14.2202 16.2793 13.1304 16.3496 11.8647C16.4199 10.564 16.4199 6.66162 16.3496 5.36084ZM14.6621 13.2358C14.416 13.939 13.8535 14.4663 13.1855 14.7476C12.1309 15.1694 9.66992 15.064 8.54492 15.064C7.38477 15.064 4.92383 15.1694 3.9043 14.7476C3.20117 14.4663 2.67383 13.939 2.39258 13.2358C1.9707 12.2163 2.07617 9.75537 2.07617 8.59521C2.07617 7.47021 1.9707 5.00928 2.39258 3.95459C2.67383 3.28662 3.20117 2.75928 3.9043 2.47803C4.92383 2.05615 7.38477 2.16162 8.54492 2.16162C9.66992 2.16162 12.1309 2.05615 13.1855 2.47803C13.8535 2.72412 14.3809 3.28662 14.6621 3.95459C15.084 5.00928 14.9785 7.47021 14.9785 8.59521C14.9785 9.75537 15.084 12.2163 14.6621 13.2358Z" fill="black" fill-opacity="0.6"/>
</svg>
