<svg width="56" height="55" viewBox="0 0 56 55" fill="none" xmlns="http://www.w3.org/2000/svg">
<path fill-rule="evenodd" clip-rule="evenodd" d="M19.193 4.2915L12.0355 11.449V43.6106H11.9413L11.0466 42.7159L4.59544 36.2648L2.71189 34.3812L2.47645 34.1458C1.3934 33.0157 0.78125 31.5559 0.78125 29.9549V10.366C0.78125 7.82316 2.33518 5.60999 4.59544 4.7153C5.30177 4.43277 6.05519 4.2915 6.90279 4.2915H19.193Z" fill="#F15623"/>
<path fill-rule="evenodd" clip-rule="evenodd" d="M55.5936 25.8586V43.611C55.5936 43.611 55.5936 44.4586 55.5936 44.9295C55.5936 47.4723 53.9926 49.6855 51.7794 50.5802C51.0731 50.8627 50.3197 51.004 49.5191 51.004H37.0406L43.3976 44.647L44.151 43.8936C44.1981 43.8465 44.1981 43.8465 44.2452 43.7994C44.3865 43.611 44.4806 43.3756 44.5277 43.1401V43.0931V43.046V28.4484C44.4806 28.213 44.3865 28.0247 44.2452 27.8834L44.1981 27.8363L29.1297 12.7679C29.0826 12.7208 29.0355 12.6737 29.0355 12.6737L28.0938 11.7319H43.9627L53.663 21.4322C53.7571 21.5264 53.8513 21.6206 53.9455 21.7148C54.9344 22.7978 55.5936 24.2575 55.5936 25.8586Z" fill="#F15623"/>
<path fill-rule="evenodd" clip-rule="evenodd" d="M51.7329 6.55123V19.5006L43.9633 11.731H28.3298C28.0944 11.731 27.8589 11.8252 27.6706 11.9664C27.6235 12.0135 27.5764 12.0606 27.5293 12.1077L12.0371 27.5999V11.4485L19.1946 4.29097L19.948 3.53755L20.984 2.50159C21.1252 2.31324 21.3136 2.17197 21.502 1.98362C22.585 1.04184 23.9977 0.429688 25.5516 0.429688H45.7056C48.2484 0.429688 50.4615 1.98362 51.3562 4.24388C51.5917 4.9973 51.7329 5.75072 51.7329 6.55123Z" fill="#081437"/>
<path fill-rule="evenodd" clip-rule="evenodd" d="M44.3872 43.6569L35.1578 53.0746C35.1108 53.1217 35.1108 53.1688 35.0637 53.1688C33.9806 54.2519 32.4738 54.864 30.8257 54.864H10.7659C8.17598 54.864 6.00989 53.263 5.11521 51.0498C4.83267 50.3435 4.69141 49.5901 4.69141 48.7896V36.311L11.1426 42.7622L11.896 43.5156C12.0373 43.6098 12.2256 43.6569 12.414 43.704C12.4611 43.704 12.4611 43.704 12.5081 43.704C12.5552 43.704 12.5552 43.704 12.6023 43.704L44.3872 43.6569Z" fill="#081437"/>
</svg>
