<svg width="76" height="13" viewBox="0 0 76 13" fill="none" xmlns="http://www.w3.org/2000/svg">
<path fill-rule="evenodd" clip-rule="evenodd" d="M57.8043 0.345215C54.4247 0.345215 51.7064 2.80644 51.7064 6.33297C51.7064 9.87175 54.4247 12.3207 57.8043 12.3207C61.1594 12.3207 63.89 9.87175 63.89 6.33297C63.89 2.80644 61.1594 0.345215 57.8043 0.345215ZM58.5635 6.9942L59.1023 8.87991C59.139 8.99012 59.0533 9.10032 58.9309 9.10032H56.6411C56.5308 9.10032 56.4451 8.99012 56.4819 8.87991L57.0206 6.9942C57.0451 6.93297 57.0084 6.8595 56.9472 6.83501C56.3962 6.52889 56.0288 5.91664 56.0778 5.23093C56.139 4.38603 56.8002 3.7248 57.6451 3.65133C58.6615 3.56562 59.5064 4.36155 59.5064 5.35338C59.5064 5.99012 59.1513 6.55338 58.6247 6.83501C58.5758 6.8595 58.539 6.92073 58.5635 6.9942ZM44.09 3.06358C45.0329 3.06358 45.89 3.38195 46.5023 3.98195C47.1268 4.58195 47.4574 5.40236 47.4574 6.35746C47.4574 8.29216 46.0737 9.63909 44.09 9.63909C42.0941 9.63909 40.7104 8.29216 40.7104 6.35746C40.7104 4.42277 42.0941 3.06358 44.09 3.06358ZM44.09 0.369702C40.7104 0.369702 37.9921 2.83093 37.9921 6.35746C37.9921 9.89624 40.7104 12.3452 44.09 12.3452C47.4451 12.3452 50.1758 9.89624 50.1758 6.35746C50.1758 2.83093 47.4451 0.369702 44.09 0.369702ZM36.5962 6.35746C36.5962 9.43093 34.4533 12.1738 30.2655 12.1738H26.3349V0.553376H30.2655C34.4655 0.54113 36.5962 3.29624 36.5962 6.35746ZM33.8411 6.35746C33.8411 4.33705 32.5798 2.86767 30.2166 2.86767H28.9921V9.84726H30.2166C32.5798 9.83502 33.8411 8.36562 33.8411 6.35746ZM68.1023 8.04726H69.9758L72.8288 12.1615H76.0002L72.5594 7.484C73.7227 6.87175 74.5554 5.74522 74.5554 4.2391C74.5554 2.27991 73.1472 0.541134 70.2819 0.541134H65.4451V12.1615H68.1023V8.04726ZM70.0615 5.85542H68.1023V2.86767H70.0615C71.139 2.86767 71.8247 3.38195 71.8247 4.38603C71.8247 5.36562 71.1268 5.85542 70.0615 5.85542ZM12.4247 0.443173V12.1615H9.79207V5.70848L6.71861 9.08807H6.3635L3.20432 5.72073V12.1615H0.608398V0.443173H1.71044L6.6084 5.73297H6.62064L11.3227 0.443173H12.4247ZM20.4574 7.91257V12.1615H17.8002V7.87583L13.6492 0.541134H16.637L19.1839 5.34114L21.7676 0.541134H24.5962L20.4574 7.91257Z" fill="black" fill-opacity="0.6"/>
</svg>
