<svg width="168" height="55" viewBox="0 0 168 55" fill="none" xmlns="http://www.w3.org/2000/svg">
<g clip-path="url(#clip0_504_4173)">
<g clip-path="url(#clip1_504_4173)">
<path d="M69.06 30.3315C68.0711 29.6252 67.5532 28.5892 67.459 27.2236H71.6499C71.697 27.93 72.0266 28.3067 72.5917 28.3067C72.8271 28.3067 72.9684 28.2596 73.1567 28.1654C73.298 28.0712 73.3922 27.93 73.3922 27.6945C73.3922 27.412 73.2509 27.1765 72.9213 26.9882C72.5917 26.7998 72.1208 26.6115 71.4144 26.376C70.6139 26.0935 69.9547 25.811 69.3896 25.5284C68.8716 25.2459 68.4008 24.8692 68.024 24.3512C67.6473 23.8332 67.459 23.174 67.459 22.3264C67.459 21.5259 67.6473 20.8196 68.0711 20.2545C68.4949 19.6894 69.06 19.2656 69.8134 18.936C70.5198 18.6535 71.3674 18.5122 72.262 18.5122C73.816 18.5122 75.0403 18.8889 75.935 19.5952C76.8297 20.3016 77.3005 21.2904 77.3476 22.6089H73.1096C73.1096 22.2322 73.0155 21.9968 72.8271 21.8555C72.6387 21.7142 72.4504 21.6201 72.2149 21.6201C72.0266 21.6201 71.9324 21.6672 71.7912 21.8084C71.697 21.9026 71.6499 22.091 71.6499 22.2793C71.6499 22.5618 71.7911 22.7973 72.1208 22.9856C72.4504 23.174 72.9213 23.4094 73.6276 23.6449C74.4281 23.9274 75.0874 24.2099 75.6053 24.4925C76.1233 24.775 76.5471 25.1517 76.9709 25.6226C77.3476 26.0935 77.536 26.7057 77.536 27.4591C77.536 28.2125 77.3476 28.9188 76.9709 29.531C76.5942 30.1431 76.0291 30.614 75.3228 30.9436C74.6165 31.2733 73.7218 31.4616 72.7329 31.4616C71.2732 31.4145 70.0489 31.0378 69.06 30.3315Z" fill="#081437"/>
<path d="M82.9496 18.7007V31.3205H78.9941V18.7007H82.9496Z" fill="#081437"/>
<path d="M88.6488 28.3068H92.463V31.2734H84.6934V18.7007H88.6488V28.3068Z" fill="#081437"/>
<path d="M72.4962 13.474C72.1666 13.6152 71.5073 13.8036 70.7068 13.8036C69.8121 13.8036 69.1058 13.5681 68.5407 13.0502C68.0228 12.5793 67.7402 11.7788 67.7402 10.8841C67.7402 9.14179 68.9175 7.91748 70.8952 7.91748C71.5544 7.91748 72.0724 8.05875 72.3549 8.20001L72.1666 8.81217C71.837 8.6709 71.4602 8.57672 70.8952 8.57672C69.4825 8.57672 68.5878 9.47141 68.5878 10.8841C68.5878 12.3438 69.4825 13.2385 70.801 13.2385C71.2719 13.2385 71.6486 13.1914 71.7899 13.0972V11.355H70.6127V10.7428H72.4962V13.474Z" fill="#58595B"/>
<path d="M75.1328 8.01187C75.5095 7.91769 76.0746 7.87061 76.5455 7.87061C77.346 7.87061 77.864 8.01187 78.2407 8.34149C78.5232 8.57694 78.7116 9.00074 78.7116 9.42454C78.7116 10.178 78.2407 10.6959 77.6285 10.8843V10.9314C78.0523 11.0726 78.3349 11.4964 78.4761 12.1086C78.6645 12.9091 78.8057 13.4742 78.8999 13.7096H78.1465C78.0523 13.5683 77.9111 13.0504 77.7698 12.344C77.5814 11.5435 77.2989 11.261 76.5926 11.2139H75.8862V13.7096H75.1328V8.01187ZM75.8391 10.6488H76.5926C77.3931 10.6488 77.9111 10.225 77.9111 9.5658C77.9111 8.81238 77.3931 8.48276 76.5926 8.48276C76.2159 8.48276 75.9804 8.52985 75.8391 8.52985V10.6488Z" fill="#58595B"/>
<path d="M81.9134 7.91748V11.355C81.9134 12.6734 82.4784 13.1914 83.2789 13.1914C84.1265 13.1914 84.6916 12.6264 84.6916 11.355V7.91748H85.445V11.3079C85.445 13.0972 84.5032 13.8036 83.2789 13.8036C82.1017 13.8036 81.207 13.1443 81.207 11.3079V7.91748H81.9134Z" fill="#58595B"/>
<path d="M88.178 8.01166C88.5547 7.96457 89.0255 7.91748 89.5906 7.91748C90.344 7.91748 90.862 8.10584 91.1916 8.38837C91.5213 8.6709 91.7096 9.0947 91.7096 9.61268C91.7096 10.1307 91.5683 10.5545 91.2858 10.837C90.9091 11.2608 90.2499 11.4491 89.4964 11.4491C89.261 11.4491 89.0726 11.4491 88.8843 11.402V13.7094H88.1309V8.01166H88.178ZM88.9314 10.7899C89.0726 10.837 89.3081 10.837 89.5435 10.837C90.4382 10.837 91.0033 10.4132 91.0033 9.61268C91.0033 8.85926 90.4853 8.48255 89.6377 8.48255C89.3081 8.48255 89.0726 8.52963 88.9314 8.52963V10.7899Z" fill="#58595B"/>
<path d="M99.1489 10.7427C99.1489 12.7205 97.9246 13.8035 96.4649 13.8035C94.958 13.8035 93.875 12.6263 93.875 10.884C93.875 9.04755 95.0051 7.82324 96.5591 7.82324C98.1601 7.82324 99.1489 9.04755 99.1489 10.7427ZM94.6755 10.8369C94.6755 12.0612 95.3348 13.1914 96.512 13.1914C97.6892 13.1914 98.3484 12.1083 98.3484 10.7898C98.3484 9.6597 97.7363 8.4354 96.512 8.4354C95.2877 8.4354 94.6755 9.56553 94.6755 10.8369Z" fill="#58595B"/>
<path fill-rule="evenodd" clip-rule="evenodd" d="M19.193 4.2915L12.0355 11.449V43.6106H11.9413L11.0466 42.7159L4.59544 36.2648L2.71189 34.3812L2.47645 34.1458C1.3934 33.0157 0.78125 31.5559 0.78125 29.9549V10.366C0.78125 7.82316 2.33518 5.60999 4.59544 4.7153C5.30177 4.43277 6.05519 4.2915 6.90279 4.2915H19.193Z" fill="#F15623"/>
<path fill-rule="evenodd" clip-rule="evenodd" d="M55.5936 25.8586V43.611C55.5936 43.611 55.5936 44.4586 55.5936 44.9295C55.5936 47.4723 53.9926 49.6855 51.7794 50.5802C51.0731 50.8627 50.3197 51.004 49.5191 51.004H37.0406L43.3976 44.647L44.151 43.8936C44.1981 43.8465 44.1981 43.8465 44.2452 43.7994C44.3865 43.611 44.4806 43.3756 44.5277 43.1401V43.0931V43.046V28.4485C44.4806 28.213 44.3865 28.0247 44.2452 27.8834L44.1981 27.8363L29.1297 12.7679C29.0826 12.7208 29.0355 12.6737 29.0355 12.6737L28.0938 11.7319H43.9627L53.663 21.4322C53.7571 21.5264 53.8513 21.6206 53.9455 21.7148C54.9344 22.7978 55.5936 24.2575 55.5936 25.8586Z" fill="#F15623"/>
<path fill-rule="evenodd" clip-rule="evenodd" d="M51.7329 6.55123V19.5006L43.9633 11.731H28.3298C28.0944 11.731 27.8589 11.8252 27.6706 11.9664C27.6235 12.0135 27.5764 12.0606 27.5293 12.1077L12.0371 27.5999V11.4485L19.1946 4.29097L19.948 3.53755L20.984 2.50159C21.1252 2.31324 21.3136 2.17197 21.502 1.98362C22.585 1.04184 23.9977 0.429688 25.5516 0.429688H45.7056C48.2484 0.429688 50.4616 1.98362 51.3562 4.24388C51.5917 4.9973 51.7329 5.75072 51.7329 6.55123Z" fill="#081437"/>
<path fill-rule="evenodd" clip-rule="evenodd" d="M44.3872 43.6569L35.1578 53.0746C35.1108 53.1217 35.1108 53.1688 35.0637 53.1688C33.9806 54.2519 32.4738 54.864 30.8257 54.864H10.7659C8.17598 54.864 6.00989 53.263 5.11521 51.0498C4.83267 50.3435 4.69141 49.5901 4.69141 48.7896V36.311L11.1426 42.7622L11.896 43.5156C12.0373 43.6098 12.2256 43.6569 12.414 43.704C12.4611 43.704 12.4611 43.704 12.5081 43.704C12.5552 43.704 12.5552 43.704 12.6023 43.704L44.3872 43.6569Z" fill="#081437"/>
<path d="M68.2124 39.0896C68.7304 38.1007 69.4367 37.3473 70.3785 36.8293C71.3203 36.3113 72.4033 36.0288 73.6747 36.0288C74.7577 36.0288 75.7466 36.2172 76.5942 36.641C77.4418 37.0648 78.1481 37.6298 78.7132 38.3832C79.2312 39.1367 79.6079 39.9843 79.7962 41.0202H75.6524C75.4641 40.5964 75.1815 40.2668 74.8519 40.0314C74.5223 39.7959 74.0985 39.7017 73.6276 39.7017C72.9684 39.7017 72.4504 39.9372 72.0737 40.4552C71.697 40.9731 71.5086 41.6324 71.5086 42.48C71.5086 43.3276 71.697 43.9868 72.0737 44.5048C72.4504 45.0228 72.9684 45.2582 73.6276 45.2582C74.0985 45.2582 74.4752 45.164 74.8519 44.9286C75.1815 44.6931 75.4641 44.3635 75.6524 43.9397H79.7962C79.6079 44.9286 79.2783 45.8233 78.7132 46.5767C78.1952 47.3301 77.4889 47.8952 76.5942 48.319C75.6995 48.7428 74.7577 48.9311 73.6747 48.9311C72.4033 48.9311 71.3203 48.6486 70.3785 48.1306C69.4367 47.6126 68.7304 46.8121 68.2124 45.8704C67.6944 44.8815 67.459 43.7985 67.459 42.5271C67.459 41.1615 67.6944 40.0784 68.2124 39.0896Z" fill="#081437"/>
<path d="M89.3084 46.8119H85.0704L84.4583 48.6955H80.3145L84.9292 36.0757H89.4968L94.1115 48.6955H89.9677L89.3084 46.8119ZM88.3195 43.8453L87.1894 40.3608L86.0593 43.8453H88.3195Z" fill="#081437"/>
<path d="M101.316 48.7428L98.9615 44.2223V48.7428H94.959V36.123H100.845C101.881 36.123 102.729 36.3114 103.482 36.6881C104.188 37.0648 104.753 37.5357 105.13 38.1479C105.507 38.76 105.695 39.4664 105.695 40.2669C105.695 41.1145 105.46 41.8679 104.989 42.5271C104.518 43.1864 103.859 43.6573 102.964 43.9398L105.695 48.7428H101.316ZM98.9144 41.5853H100.468C100.845 41.5853 101.128 41.4912 101.316 41.3499C101.504 41.1615 101.599 40.9261 101.599 40.5494C101.599 40.2198 101.504 39.9372 101.316 39.7489C101.128 39.5605 100.845 39.4664 100.468 39.4664H98.9144V41.5853Z" fill="#081437"/>
<path d="M119.587 36.123L115.349 48.7428H110.263L106.025 36.123H110.216L112.806 44.7874L115.396 36.123H119.587Z" fill="#081437"/>
<path d="M104.753 18.7949L100.515 31.4147H95.4294L91.1914 18.7949H95.3823L97.9722 27.4593L100.562 18.7949H104.753Z" fill="#081437"/>
<path d="M126.271 46.8119H122.08L121.468 48.6955H117.324L121.939 36.0757H126.507L131.121 48.6955H126.977L126.271 46.8119ZM125.282 43.8453L124.152 40.3608L123.022 43.8453H125.282Z" fill="#081437"/>
<path d="M135.875 45.7292H139.69V48.6958H131.92V36.123H135.875V45.7292Z" fill="#081437"/>
<path d="M152.594 36.123V48.7428H148.639V43.7985H144.871V48.6958H140.916V36.123H144.871V40.6436H148.639V36.123H152.594Z" fill="#081437"/>
<path d="M157.257 48.0361C156.268 47.471 155.468 46.7176 154.902 45.7288C154.337 44.7399 154.008 43.6569 154.008 42.3855C154.008 41.1141 154.29 40.031 154.902 39.0422C155.515 38.0533 156.268 37.2999 157.257 36.7348C158.246 36.1697 159.329 35.8872 160.506 35.8872C161.683 35.8872 162.766 36.1697 163.755 36.7348C164.744 37.2999 165.497 38.0533 166.11 39.0422C166.675 40.031 166.957 41.1141 166.957 42.3855C166.957 43.6569 166.675 44.7399 166.11 45.7288C165.545 46.7176 164.744 47.471 163.755 48.0361C162.766 48.6012 161.683 48.8837 160.506 48.8837C159.329 48.8366 158.246 48.5541 157.257 48.0361ZM162.343 44.4103C162.766 43.8923 163.002 43.2331 163.002 42.3855C163.002 41.5379 162.766 40.8315 162.343 40.3136C161.919 39.7956 161.307 39.5601 160.506 39.5601C159.706 39.5601 159.093 39.7956 158.67 40.3136C158.246 40.8315 158.01 41.4908 158.01 42.3855C158.01 43.2331 158.246 43.9394 158.67 44.4103C159.093 44.9283 159.706 45.1637 160.506 45.1637C161.307 45.1637 161.919 44.9283 162.343 44.4103Z" fill="#081437"/>
<path d="M111.392 29.4838H107.201L106.589 31.3673H102.445L107.06 18.7476H111.628L116.242 31.3673H112.099L111.392 29.4838ZM110.45 26.5172L109.32 23.0326L108.19 26.5172H110.45Z" fill="#081437"/>
<path d="M129.145 31.4147H125.189L120.998 25.0577V31.4147H117.09V18.7949H121.045L125.236 25.2461V18.7949H129.192V31.4147H129.145Z" fill="#081437"/>
<path d="M139.033 29.4838H134.842L134.23 31.3673H130.086L134.701 18.7476H139.268L143.883 31.3673H139.739L139.033 29.4838ZM138.044 26.5172L136.914 23.0326L135.784 26.5172H138.044Z" fill="#081437"/>
</g>
</g>
<defs>
<clipPath id="clip0_504_4173">
<rect width="167.732" height="54.5128" fill="white" transform="translate(0 0.437988)"/>
</clipPath>
<clipPath id="clip1_504_4173">
<rect width="166.176" height="54.4346" fill="white" transform="translate(0.777344 0.477051)"/>
</clipPath>
</defs>
</svg>
